<?xml version="1.0" encoding="utf-8"?>
<!-- Generator: Adobe Illustrator 23.0.4, SVG Export Plug-In . SVG Version: 6.00 Build 0)  -->
<svg version="1.1" id="Layer_1" xmlns="http://www.w3.org/2000/svg" xmlns:xlink="http://www.w3.org/1999/xlink" x="0px" y="0px"
	 viewBox="0 0 299 65.2" style="enable-background:new 0 0 299 65.2;" xml:space="preserve">
<style type="text/css">
	.st0{fill:#f13976;}
	.st1{fill:#ED1C24;}
	.st2{fill:#F7941D;}
	.st3{fill:#FFE800;}
	.st4{fill:#008341;}
	.st5{fill:#0073BD;}
	.st6{fill:#7C2A90;}
</style>
<g>
	<path class="st0" d="M110.2,32.7c0,4.6,3,8.4,7.9,8.4c4.7,0,7.9-3.6,7.9-8.4c0-4.8-3.1-8.4-7.9-8.4
		C113.1,24.3,110.2,28.1,110.2,32.7 M131.2,45.8h-5.7v-3.1c-1.8,2.3-4.5,3.8-8.2,3.8c-7.3,0-13-5.8-13-13.8s5.7-13.7,13-13.7
		c3.7,0,6.4,1.5,8.2,3.9v-3.2h5.7V45.8z"/>
	<path class="st0" d="M180.1,29.3v16.4h-5.7V31.2c0-4.4-2.3-6.9-6.1-6.9c-3.7,0-6.7,2.4-6.7,6.9v14.5h-5.7V31.2
		c0-4.4-2.3-6.9-6.1-6.9c-3.7,0-6.7,2.4-6.7,6.9v14.5h-5.7V19.6h5.6v3.2c2.1-3.1,5.3-3.9,8-3.9c4,0,7.2,1.8,9,4.7
		c2.2-3.7,6.3-4.7,9.5-4.7C175.8,18.9,180.1,23.2,180.1,29.3"/>
	<path class="st0" d="M222.9,32.7c0,4.9,3.5,8.4,8.1,8.4s8.2-3.4,8.2-8.4s-3.5-8.4-8.2-8.4C226.4,24.3,222.9,27.8,222.9,32.7
		 M245.1,32.7c0,7.8-6,13.8-14,13.8c-8,0-14-5.9-14-13.8S223,19,231,19C239.1,18.9,245.1,24.9,245.1,32.7"/>
	<path class="st0" d="M272.5,23.1l-3.6,3.9c-1.8-1.7-3.8-2.7-6.2-2.7c-4.4,0-7.7,3.4-7.7,8.4c0,4.9,3.3,8.4,7.7,8.4
		c2.5,0,4.7-1.2,6.4-2.7l3.5,3.9c-2.4,2.8-5.8,4.2-9.7,4.2c-8.3,0-13.7-5.9-13.7-13.8s5.4-13.8,13.7-13.8
		C266.6,18.9,270.2,20.4,272.5,23.1"/>
	<path class="st0" d="M295.9,26.2c-1.6-1-4.8-2.2-8-2.2c-3.1,0-4.9,1.2-4.9,3.1c0,1.8,1.9,2.4,4.3,2.7l2.7,0.4c5.7,0.8,9,3.2,9,7.7
		c0,5-4.3,8.5-11.8,8.5c-2.7,0-7.4-0.5-11.2-3.4l2.6-4.3c1.9,1.4,4.3,2.7,8.6,2.7c3.9,0,5.9-1.2,5.9-3.2c0-1.5-1.4-2.5-4.5-2.9
		l-2.7-0.4c-5.8-0.8-8.8-3.5-8.8-7.7c0-5.2,4.1-8.4,10.8-8.4c4.1,0,7.9,1,10.5,2.8L295.9,26.2z"/>
	<path class="st0" d="M190.8,32.7c0,4.6,3,8.4,7.9,8.4c4.7,0,7.9-3.6,7.9-8.4c0-4.8-3.1-8.4-7.9-8.4
		C193.8,24.3,190.8,28.1,190.8,32.7 M206.2,22.8v-9.6l5.7-2v34.6h-5.7v-3.1c-1.8,2.3-4.5,3.8-8.2,3.8c-7.3,0-13-5.8-13-13.8
		s5.7-13.8,13-13.8C201.7,18.9,204.4,20.5,206.2,22.8"/>
	<path class="st1" d="M45.6,0H7.3l3.1,10.9h52.7C59.9,4.4,53.3,0,45.6,0"/>
	<path class="st2" d="M65.2,21.7v-2.2c0-3.1-0.7-6.1-2-8.7H10.5l0.6,2.2h34.5c3.6,0,6.5,2.9,6.5,6.5v2.2L65.2,21.7L65.2,21.7z"/>
	<path class="st3" d="M65.2,32.6v-6.5v-4.4h-13v4.4H19.5c-5.8,0-11,2.5-14.6,6.5H65.2z"/>
</g>
<polygon class="st3" points="85.8,32.6 83.9,26.1 72,26.1 72,32.6 "/>
<polygon class="st4" points="72,39.1 87.6,39.1 85.8,32.6 72,32.6 "/>
<g>
	<path class="st4" d="M65.2,43.5V32.6H5c-2.6,3-4.4,6.7-4.9,10.9h13.3c0.9-2.5,3.3-4.4,6.1-4.4h32.6v4.4H65.2z"/>
	<path class="st5" d="M2,54.3h61.1c1.3-2.6,2-5.6,2-8.7v-2.2h-13v2.2c0,3.6-2.9,6.5-6.5,6.5H19.6c-3.6,0-6.5-2.9-6.5-6.5
		c0-0.8,0.1-1.5,0.4-2.2H0.1C0,44.2,0,44.9,0,45.6C0,48.8,0.7,51.7,2,54.3"/>
	<path class="st6" d="M19.6,65.2h26.1c7.7,0,14.3-4.4,17.5-10.9H2C5.2,60.8,11.9,65.2,19.6,65.2"/>
</g>
</svg>
