<?xml version="1.0" standalone="no"?>
<!DOCTYPE svg PUBLIC "-//W3C//DTD SVG 20010904//EN"
 "http://www.w3.org/TR/2001/REC-SVG-20010904/DTD/svg10.dtd">
<svg version="1.0" xmlns="http://www.w3.org/2000/svg"
 width="200.000000pt" height="200.000000pt" viewBox="0 0 200.000000 200.000000"
 preserveAspectRatio="xMidYMid meet">
<metadata>
Created by potrace 1.16, written by Peter Selinger 2001-2019
</metadata>
<g transform="translate(0.000000,200.000000) scale(0.100000,-0.100000)"
fill="#ff0000" stroke="none">
<path d="M767 1434 c-138 -44 -197 -224 -120 -365 59 -109 204 -150 321 -90
55 28 59 38 27 71 l-28 29 -40 -21 c-81 -41 -174 -3 -197 81 -23 85 -2 158 59
198 42 28 85 29 135 4 l38 -20 24 27 c33 38 30 48 -18 73 -54 27 -139 33 -201
13z"/>
<path d="M1205 1443 c-76 -18 -125 -72 -125 -136 0 -77 39 -114 153 -146 92
-27 107 -37 107 -71 0 -19 -7 -33 -19 -40 -29 -15 -105 -12 -151 6 -41 17 -41
17 -71 -12 -16 -15 -29 -31 -29 -35 0 -13 98 -49 153 -55 156 -18 263 81 214
198 -18 43 -56 65 -164 97 -74 22 -99 44 -87 76 14 37 89 46 162 21 l41 -15
22 35 c12 20 18 39 13 44 -26 25 -166 46 -219 33z"/>
<path d="M1638 1436 c-59 -22 -86 -43 -108 -86 -32 -63 -24 -138 22 -187 l20
-22 -21 -27 c-24 -30 -27 -65 -8 -95 10 -17 9 -22 -6 -30 -24 -14 -47 -62 -47
-98 0 -40 46 -84 107 -102 67 -19 211 -16 267 5 139 53 125 203 -22 235 -29 6
-72 11 -95 11 -52 1 -116 15 -130 29 -22 22 11 36 78 33 135 -7 234 84 212
196 -14 69 -14 67 26 70 36 3 37 4 37 43 0 34 -3 39 -22 39 -13 0 -42 -9 -66
-20 -40 -18 -46 -19 -74 -4 -43 22 -125 27 -170 10z m137 -89 c17 -14 28 -36
32 -63 4 -35 1 -46 -24 -74 -71 -80 -196 -5 -162 97 6 18 20 40 32 48 32 23
91 19 122 -8z m55 -411 c14 -6 26 -21 28 -34 3 -18 -4 -26 -32 -37 -42 -18
-165 -20 -201 -3 -34 15 -43 53 -19 79 17 19 26 20 109 14 49 -4 101 -12 115
-19z"/>
<path d="M34 1406 c-3 -7 -4 -33 -2 -57 l3 -44 63 -3 62 -3 0 61 0 60 -60 0
c-42 0 -62 -4 -66 -14z"/>
<path d="M194 1406 c-3 -7 -4 -33 -2 -57 l3 -44 63 -3 62 -3 0 61 0 60 -60 0
c-42 0 -62 -4 -66 -14z"/>
<path d="M197 1253 c-13 -13 -7 -100 7 -112 8 -7 36 -11 63 -9 l48 3 3 63 3
62 -59 0 c-32 0 -62 -3 -65 -7z"/>
<path d="M362 1198 l3 -63 55 0 55 0 3 63 3 62 -61 0 -61 0 3 -62z"/>
<path d="M360 1035 l0 -65 60 0 60 0 0 65 0 65 -60 0 -60 0 0 -65z"/>
</g>
</svg>
