<?xml version="1.0" encoding="UTF-8"?>
<svg width="32px" height="36px" viewBox="0 0 32 36" version="1.1" xmlns="http://www.w3.org/2000/svg" xmlns:xlink="http://www.w3.org/1999/xlink">
    <!-- Generator: Sketch 63.1 (92452) - https://sketch.com -->
    <title>Brand Assets / Logo / ☀️LightMode / Blue</title>
    <desc>Created with Sketch.</desc>
    <defs>
        <polygon id="path-1" points="0.0189473684 0.171255814 0.0189473684 27.9804651 29.7037895 27.9804651 29.7037895 0.171255814 0.0189473684 0.171255814"></polygon>
    </defs>
    <g id="Symbols" stroke="none" stroke-width="1" fill="none" fill-rule="evenodd">
        <g id="Header/Navigation" transform="translate(-24.000000, -18.000000)">
            <g id="Header-Navigation">
                <g id="Brand-Assets-/-Logo-/-☀️LightMode-/-Blue" transform="translate(16.000000, 12.000000)">
                    <g id="Logo" transform="translate(8.000000, 6.000000)">
                        <g id="Group-3" transform="translate(0.000000, 8.000000)">
                            <mask id="mask-2" fill="white">
                                <use xlink:href="#path-1"></use>
                            </mask>
                            <g id="Clip-2"></g>
                            <path d="M20.9431579,7.32981395 L19.5587368,15.715814 C19.2729474,17.2245581 18.3091579,17.6331628 17.4533684,17.6331628 L11.0415789,17.6331628 L13.7434737,2.27386047 C11.0456842,1.00181395 8.29136842,0.171255814 6.09789474,0.171255814 C4.01115789,0.171255814 2.31663158,0.753069767 1.18989474,2.1472093 C0.395684211,3.13827907 0,4.36148837 0,5.81651163 C0,10.1832093 3.33126316,16.2422791 9.03284211,21.1849302 C14.1157895,25.553907 19.7071579,28 23.7770526,28 C25.8072632,28 27.4452632,27.3589302 28.5202105,26.0797209 C29.3665263,25.0896279 29.7037895,23.8055349 29.7037895,22.3508372 C29.7037895,18.1078605 26.3485263,12.1594884 20.9431579,7.32981395" id="Fill-1" fill="#0099F8" mask="url(#mask-2)"></path>
                            <path d="M4490 3003 c0 -9 -367 -2095 -376 -2136 l-6 -27 309 0 308 0 168 958
c93 526 179 1014 191 1085 l23 127 -309 0 c-169 0 -308 -3 -308 -7z"/>
<path d="M6895 2898 c-18 -83 -225 -1328 -230 -1388 -4 -41 -2 -109 4 -151 36
-256 196 -431 459 -501 88 -23 331 -30 367 -10 18 9 27 44 63 254 23 134 42
245 42 248 0 3 -33 6 -72 6 -119 -1 -192 37 -229 119 -25 54 -24 73 16 321 19
118 35 217 35 220 0 2 83 4 185 4 102 0 185 4 185 8 0 4 18 109 40 232 22 124
40 231 40 238 0 9 -43 12 -180 12 -110 0 -180 4 -180 10 0 5 14 93 30 195 17
102 30 190 30 195 0 6 -112 10 -300 10 l-300 0 -5 -22z"/>
<path d="M3108 2534 c-279 -50 -499 -214 -630 -470 -90 -174 -124 -329 -116
-531 4 -104 10 -143 32 -208 71 -209 198 -355 381 -441 232 -108 568 -108 800
0 39 18 98 54 131 79 66 50 167 171 162 195 -2 8 -96 71 -211 140 l-208 126
-47 -47 c-64 -63 -120 -87 -205 -87 -132 0 -213 63 -236 185 l-8 45 536 2 536
3 12 65 c17 94 16 341 -2 418 -67 284 -279 478 -579 531 -81 15 -254 12 -348
-5z m270 -493 c50 -26 89 -80 98 -138 l7 -43 -242 0 c-132 0 -241 2 -241 5 0
3 9 25 21 48 37 73 95 124 169 148 42 14 142 3 188 -20z"/>
<path d="M5691 2535 c-225 -42 -402 -159 -489 -324 -51 -95 -66 -154 -66 -266
1 -125 24 -191 94 -269 84 -92 184 -134 462 -196 159 -35 203 -55 219 -97 34
-91 -68 -160 -197 -133 -49 10 -67 20 -106 60 -29 28 -50 60 -54 79 -4 17 -12
31 -18 31 -14 0 -518 -109 -522 -113 -8 -8 23 -123 48 -176 106 -223 430 -356
781 -322 212 21 372 86 482 196 190 191 208 523 37 694 -84 84 -170 119 -429
175 -182 40 -227 55 -242 84 -18 34 -13 77 14 106 74 80 223 56 292 -46 17
-26 33 -52 35 -57 1 -5 118 15 258 45 140 30 258 54 263 54 23 0 -13 129 -60
209 -65 113 -207 212 -360 252 -102 27 -335 35 -442 14z"/>
<path d="M8896 2530 c-118 -21 -189 -55 -269 -129 l-48 -45 7 77 7 77 -257 0
c-141 0 -256 -3 -256 -7 0 -5 -65 -379 -145 -832 -80 -453 -145 -825 -145
-827 0 -2 139 -4 308 -4 l308 0 73 423 c83 482 91 508 186 596 78 71 145 94
256 89 l85 -4 54 271 c29 148 55 277 58 287 3 11 -5 18 -25 21 -60 12 -150 15
-197 7z"/>
<path d="M9730 2520 c-198 -49 -355 -165 -478 -353 -156 -239 -212 -619 -131
-883 75 -243 248 -413 467 -460 189 -40 364 5 496 126 59 55 59 55 53 24 -3
-17 -9 -54 -13 -83 l-7 -51 262 0 c143 0 261 2 261 5 0 3 259 1482 286 1633
l6 32 -275 0 c-254 0 -276 -1 -281 -17 -2 -10 -10 -44 -16 -76 l-12 -58 -52
49 c-64 61 -114 87 -213 113 -99 25 -250 25 -353 -1z m327 -525 c106 -31 173
-140 173 -278 -1 -169 -67 -295 -186 -353 -171 -84 -337 28 -352 236 -12 176
79 346 210 391 65 23 90 23 155 4z"/>
                        </g>
                        <path d="M6.94374825,1.77212582 L6,6.72948679 L14.4365674,6.72948679 L10.8149005,26 L17.5242368,26 C18.4197402,26 19.4282555,25.5998528 19.7273074,24.1223374 L22.7954805,6.72948679 L28.8640858,6.72948679 C29.9330724,6.72948679 30.8160189,6.0446134 31.0529473,4.96310013 L32,0 L9.12996619,0 C8.06494497,0 7.17968532,0.689656018 6.94374825,1.77212582 Z" id="Fill-4" fill="#001E82"></path>
                        <path d="M4490 3003 c0 -9 -367 -2095 -376 -2136 l-6 -27 309 0 308 0 168 958
c93 526 179 1014 191 1085 l23 127 -309 0 c-169 0 -308 -3 -308 -7z"/>
<path d="M6895 2898 c-18 -83 -225 -1328 -230 -1388 -4 -41 -2 -109 4 -151 36
-256 196 -431 459 -501 88 -23 331 -30 367 -10 18 9 27 44 63 254 23 134 42
245 42 248 0 3 -33 6 -72 6 -119 -1 -192 37 -229 119 -25 54 -24 73 16 321 19
118 35 217 35 220 0 2 83 4 185 4 102 0 185 4 185 8 0 4 18 109 40 232 22 124
40 231 40 238 0 9 -43 12 -180 12 -110 0 -180 4 -180 10 0 5 14 93 30 195 17
102 30 190 30 195 0 6 -112 10 -300 10 l-300 0 -5 -22z"/>
<path d="M3108 2534 c-279 -50 -499 -214 -630 -470 -90 -174 -124 -329 -116
-531 4 -104 10 -143 32 -208 71 -209 198 -355 381 -441 232 -108 568 -108 800
0 39 18 98 54 131 79 66 50 167 171 162 195 -2 8 -96 71 -211 140 l-208 126
-47 -47 c-64 -63 -120 -87 -205 -87 -132 0 -213 63 -236 185 l-8 45 536 2 536
3 12 65 c17 94 16 341 -2 418 -67 284 -279 478 -579 531 -81 15 -254 12 -348
-5z m270 -493 c50 -26 89 -80 98 -138 l7 -43 -242 0 c-132 0 -241 2 -241 5 0
3 9 25 21 48 37 73 95 124 169 148 42 14 142 3 188 -20z"/>
<path d="M5691 2535 c-225 -42 -402 -159 -489 -324 -51 -95 -66 -154 -66 -266
1 -125 24 -191 94 -269 84 -92 184 -134 462 -196 159 -35 203 -55 219 -97 34
-91 -68 -160 -197 -133 -49 10 -67 20 -106 60 -29 28 -50 60 -54 79 -4 17 -12
31 -18 31 -14 0 -518 -109 -522 -113 -8 -8 23 -123 48 -176 106 -223 430 -356
781 -322 212 21 372 86 482 196 190 191 208 523 37 694 -84 84 -170 119 -429
175 -182 40 -227 55 -242 84 -18 34 -13 77 14 106 74 80 223 56 292 -46 17
-26 33 -52 35 -57 1 -5 118 15 258 45 140 30 258 54 263 54 23 0 -13 129 -60
209 -65 113 -207 212 -360 252 -102 27 -335 35 -442 14z"/>
<path d="M8896 2530 c-118 -21 -189 -55 -269 -129 l-48 -45 7 77 7 77 -257 0
c-141 0 -256 -3 -256 -7 0 -5 -65 -379 -145 -832 -80 -453 -145 -825 -145
-827 0 -2 139 -4 308 -4 l308 0 73 423 c83 482 91 508 186 596 78 71 145 94
256 89 l85 -4 54 271 c29 148 55 277 58 287 3 11 -5 18 -25 21 -60 12 -150 15
-197 7z"/>
<path d="M9730 2520 c-198 -49 -355 -165 -478 -353 -156 -239 -212 -619 -131
-883 75 -243 248 -413 467 -460 189 -40 364 5 496 126 59 55 59 55 53 24 -3
-17 -9 -54 -13 -83 l-7 -51 262 0 c143 0 261 2 261 5 0 3 259 1482 286 1633
l6 32 -275 0 c-254 0 -276 -1 -281 -17 -2 -10 -10 -44 -16 -76 l-12 -58 -52
49 c-64 61 -114 87 -213 113 -99 25 -250 25 -353 -1z m327 -525 c106 -31 173
-140 173 -278 -1 -169 -67 -295 -186 -353 -171 -84 -337 28 -352 236 -12 176
79 346 210 391 65 23 90 23 155 4z"/>
                    </g>
                </g>
            </g>
        </g>
    </g>
</svg>