<?xml version="1.0" encoding="UTF-8"?>
<svg width="32px" height="36px" viewBox="0 0 32 36" version="1.1" xmlns="http://www.w3.org/2000/svg" xmlns:xlink="http://www.w3.org/1999/xlink">
    <!-- Generator: Sketch 63.1 (92452) - https://sketch.com -->
    <title>Brand Assets / Logo / ☀️LightMode / Blue</title>
    <desc>Created with Sketch.</desc>
    <defs>
        <polygon id="path-1" points="0.0189473684 0.171255814 0.0189473684 27.9804651 29.7037895 27.9804651 29.7037895 0.171255814 0.0189473684 0.171255814"></polygon>
    </defs>
    <g id="Symbols" stroke="none" stroke-width="1" fill="none" fill-rule="evenodd">
        <g id="Header/Navigation" transform="translate(-24.000000, -18.000000)">
            <g id="Header-Navigation">
                <g id="Brand-Assets-/-Logo-/-☀️LightMode-/-Blue" transform="translate(16.000000, 12.000000)">
                    <g id="Logo" transform="translate(8.000000, 6.000000)">
                        <g id="Group-3" transform="translate(0.000000, 8.000000)">
                            <mask id="mask-2" fill="white">
                                <use xlink:href="#path-1"></use>
                            </mask>
                            <g id="Clip-2"></g>
                            <path d="M20.9431579,7.32981395 L19.5587368,15.715814 C19.2729474,17.2245581 18.3091579,17.6331628 17.4533684,17.6331628 L11.0415789,17.6331628 L13.7434737,2.27386047 C11.0456842,1.00181395 8.29136842,0.171255814 6.09789474,0.171255814 C4.01115789,0.171255814 2.31663158,0.753069767 1.18989474,2.1472093 C0.395684211,3.13827907 0,4.36148837 0,5.81651163 C0,10.1832093 3.33126316,16.2422791 9.03284211,21.1849302 C14.1157895,25.553907 19.7071579,28 23.7770526,28 C25.8072632,28 27.4452632,27.3589302 28.5202105,26.0797209 C29.3665263,25.0896279 29.7037895,23.8055349 29.7037895,22.3508372 C29.7037895,18.1078605 26.3485263,12.1594884 20.9431579,7.32981395" id="Fill-1" fill="#0099F8" mask="url(#mask-2)"></path>
                        </g>
                        <path d="M6.94374825,1.77212582 L6,6.72948679 L14.4365674,6.72948679 L10.8149005,26 L17.5242368,26 C18.4197402,26 19.4282555,25.5998528 19.7273074,24.1223374 L22.7954805,6.72948679 L28.8640858,6.72948679 C29.9330724,6.72948679 30.8160189,6.0446134 31.0529473,4.96310013 L32,0 L9.12996619,0 C8.06494497,0 7.17968532,0.689656018 6.94374825,1.77212582 Z" id="Fill-4" fill="#001E82"></path>
                    </g>
                </g>
            </g>
        </g>
    </g>
</svg>