<svg xmlns="http://www.w3.org/2000/svg" height="800" width="1200" viewBox="-60.417975 -21.9035 523.62245 131.421"><g fill="#3b455a"><path d="M216.6038 19.3522c-13.452 0-24.396 10.9443-24.396 24.397 0 13.452 10.944 24.3962 24.396 24.3962s24.3974-10.9443 24.3974-24.3963c0-13.4526-10.9454-24.3969-24.3974-24.3969zm0 68.0959c-24.096 0-43.6986-19.6032-43.6986-43.699 0-24.0964 19.6026-43.6994 43.6986-43.6994s43.7 19.603 43.7 43.6994c0 24.0958-19.604 43.699-43.7 43.699M92.5009.0314h13.251c1.764 0 3.1938 1.4297 3.1938 3.1937v46.4516c0 10.6307 2.741 18.2995 13.5443 18.2995 15.7712 0 23.6565-8.8844 23.6565-29.9563V3.2251c0-1.764 1.4293-3.1937 3.1933-3.1937h13.1307c1.764 0 3.1933 1.4297 3.1933 3.1937v81.0474c0 1.7641-1.4293 3.1943-3.1933 3.1943h-13.1307c-1.764 0-3.1933-1.4302-3.1933-3.1943v-8.1578c-4.2853 9.087-14.5748 11.2802-29.4904 11.2802-18.687 0-27.3495-9.4291-27.3495-33.2599V3.2251c0-1.764 1.4302-3.1937 3.1943-3.1937m178.3416.0031h13.1293c1.764 0 3.1947 1.4302 3.1947 3.1942v8.1579s2.6507-11.162 26.76-11.3584c3.456-.028 3.9 1.5824 3.6627 3.4693l-1.7214 13.7246c0 1.7572-1.4573 3.1776-3.212 3.0905a39.4667 39.4667 0 00-1.9306-.0484c-9.2587 0-17.588 6.1807-21.7014 19.2093-1.3706 4.2866-1.8853 9.0871-1.8853 14.2303v30.5724c0 1.764-1.4293 3.1943-3.1933 3.1943h-13.1027c-1.7653 0-3.1947-1.4303-3.1947-3.1943V3.2287c0-1.764 1.4294-3.1942 3.1947-3.1942m63.5933 43.7906c.064-13.3802 11.168-24.2145 24.716-24.1166 13.14.0953 23.92 11.1104 23.8494 24.3688.0773 13.7505-11.632 23.8744-24.5654 23.6353-13.2826-.2457-24.0653-10.5401-24-23.8875zm68.256-1.7437c-.476-10.8328-4.472-20.2907-11.9853-28.2896-14.4027-15.3307-37.0413-17.7839-54.0693-7.8416-15.5694 9.0905-25.0934 28.1443-21.056 46.5552 9.6626 44.0635 58.58 40.0635 67.584 23.578.164-.0723.1306 8.1079.1306 8.1079 0 1.7916 1.8214 3.2443 3.6134 3.2443h12.6333c1.792 0 3.244-1.4527 3.244-3.2443 0 0-.0627-42.1031-.0947-42.1099"/><path d="M91.2586 85.2835c-.0082-.0078-.017-.0157-.0254-.0235a.7791.7791 0 00-.0454-.0375c-4.441-3.3427-5.9744-9.3338-8.1192-16.4599-.1568-.5203-.6401-.8823-1.1833-.8801l-44.9147.1505c-1.0462.0036-1.6249-1.2125-.9629-2.0224l45.2604-53.2819a3.13 3.13 0 00.7443-2.0254V3.109c0-2.0021-1.5943-3.0937-4.4547-3.0937H4.928C2.719.0153.9285 1.8058.9285 4.0147v11.6047c0 2.2088 1.7906 3.9995 3.9995 3.9995h20.1406v-.023h21.8958c1.037 0 1.6146 1.1986.9693 2.0099L6.7644 69.8538C3.0415 74.0825-.7512 78.2361.1284 82.8376.389 84.2017.99 85.4621 1.841 86.532c.487.6125 1.2437.951 2.026.951l86.5735-.0322c1.141 0 1.664-1.401.8181-2.1672"/></g></svg>